<?xml version="1.0" encoding="UTF-8"?>
<svg id="Layer_1" xmlns="http://www.w3.org/2000/svg" version="1.1" viewBox="0 0 32 32">
  <!-- Generator: Adobe Illustrator 29.5.0, SVG Export Plug-In . SVG Version: 2.1.0 Build 137)  -->
  <defs>
    <style>
      .st0 {
        fill: #d3bf72;
      }
    </style>
  </defs>
  <path class="st0" color-rendering="auto" d="M16.06,4c-3.26,0-6.39,1.3-8.7,3.6s-3.6,5.44-3.6,8.7,1.3,6.39,3.6,8.7c2.31,2.31,5.44,3.6,8.7,3.6s6.39-1.3,8.7-3.6c2.31-2.31,3.6-5.44,3.6-8.7s-1.3-6.39-3.6-8.7-5.44-3.6-8.7-3.6ZM15.37,5.1v6.39c-1.9-.06-3.81-.36-5.74-.89.33-.85.74-1.63,1.21-2.32,1.26-1.85,2.86-2.94,4.53-3.17h0ZM16.76,5.1c1.67.24,3.27,1.33,4.52,3.17.48.7.88,1.49,1.22,2.34-1.9.53-3.82.82-5.74.88v-6.39ZM11.27,6.11c-.47.46-.91.98-1.3,1.57-.54.79-.99,1.67-1.35,2.61-.56-.18-1.12-.38-1.68-.59.35-.48.73-.93,1.15-1.35.93-.93,2.01-1.68,3.18-2.23h0ZM20.84,6.11c1.17.55,2.25,1.3,3.18,2.23.43.43.81.88,1.16,1.37-.56.22-1.12.42-1.68.6-.37-.95-.82-1.83-1.36-2.63-.4-.59-.84-1.11-1.3-1.57h0ZM6.18,10.89c.66.27,1.33.5,1.99.72-.33,1.17-.54,2.42-.61,3.7h-2.72c.14-1.56.6-3.06,1.34-4.41h0ZM25.93,10.91c.74,1.35,1.2,2.85,1.33,4.4h-2.72c-.07-1.27-.28-2.51-.61-3.68.67-.21,1.33-.45,1.99-.72h0ZM9.18,11.91c2.07.58,4.13.89,6.18.95v2.44h-6.75c.07-1.18.26-2.32.57-3.4h0ZM22.94,11.93c.3,1.07.49,2.21.56,3.38h-6.74v-2.44c2.07-.05,4.13-.37,6.18-.94h0ZM4.81,16.82h2.74c.04,1.44.26,2.86.63,4.17-.67.21-1.34.44-2,.7-.81-1.49-1.29-3.16-1.36-4.88h0ZM8.59,16.82h6.77v3.01c-2.07.03-4.14.32-6.18.87-.35-1.22-.55-2.54-.59-3.88ZM16.76,16.82h6.76c-.04,1.41-.26,2.77-.64,4.04-2.05-.59-4.09-.92-6.13-1.01v-3.03ZM24.57,16.82h2.74c-.08,1.79-.59,3.52-1.47,5.06-.65-.26-1.3-.5-1.95-.71.41-1.37.64-2.84.68-4.35h0ZM15.36,21.22v6.3c-1.67-.24-3.28-1.32-4.53-3.17-.47-.69-.88-1.47-1.21-2.32,1.9-.51,3.82-.78,5.74-.81h0ZM16.76,21.23c1.88.08,3.76.39,5.67.94-.32.79-.7,1.52-1.15,2.17-1.25,1.85-2.85,2.93-4.52,3.17v-6.28ZM8.62,22.31c.36.94.82,1.82,1.35,2.61.4.59.84,1.11,1.3,1.57-1.17-.55-2.25-1.3-3.18-2.23-.43-.43-.81-.88-1.16-1.37.56-.21,1.12-.41,1.68-.58h0ZM23.43,22.48c.54.18,1.08.37,1.62.59-.32.42-.66.82-1.04,1.19-.93.93-2.01,1.68-3.18,2.23.47-.46.91-.98,1.3-1.57.5-.74.93-1.56,1.29-2.44h0Z" image-rendering="auto" shape-rendering="auto"/>
</svg>